<svg width="689" height="718" viewBox="0 0 689 718" fill="none" xmlns="http://www.w3.org/2000/svg">
<path d="M250 3C182.833 11.3333 122 3 63.5001 176C10 289.5 20.4 356.5 10 432.5C-2.99996 527.5 -21.0695 615.778 99.9999 697.5C120 711 173 735.5 317 697.5C461 659.5 472.105 736.751 617.5 697.5C706.5 673.473 686.5 601.041 686.5 432.5C686.5 316.5 668.5 295.5 642 227C615.5 158.5 590.5 126 563 98.4999C524.101 59.601 478 23 381 12C303.4 3.20001 273.5 -4.33333 250 3Z" fill="#D9D9D9" fill-opacity="0.65"/>
</svg>
