<?xml version="1.0" encoding="UTF-8" standalone="no"?><!DOCTYPE svg PUBLIC "-//W3C//DTD SVG 1.1//EN" "http://www.w3.org/Graphics/SVG/1.1/DTD/svg11.dtd"><svg width="100%" height="100%" viewBox="0 0 751 405" version="1.1" xmlns="http://www.w3.org/2000/svg" xmlns:xlink="http://www.w3.org/1999/xlink" xml:space="preserve" xmlns:serif="http://www.serif.com/" style="fill-rule:evenodd;clip-rule:evenodd;stroke-linejoin:round;stroke-miterlimit:2;"><path d="M196.3,160.5c14.4,-22.1 22.1,-48.4 21.9,-74.8c-0.1,-6.2 -0.2,-13.3 4.1,-17.7c4.4,-4.4 14.6,-1.2 12.8,4.8c-4.4,15 -6.4,30.7 -5.6,46.3c0.4,9.1 2.3,19.1 9.5,24.6c7.2,5.5 20.6,1.8 20.6,-7.2c0.1,-29.8 2.3,-59.6 6.4,-89.1c2.8,-19.6 10,-43 29.3,-47.4c19.3,8.3 21.4,34.8 17.4,55.4c-5,25.5 -14.8,50.1 -28.7,72.2c-7.4,11.8 -15.9,27.9 -6.5,38.2c4.3,-0.6 8.7,-1.2 13,-1.8c-7.1,-25.4 3.8,-54.8 25.7,-69.6c6.6,19.2 5.7,40.8 -2.4,59.4c6.3,6.7 17.7,6 25.4,0.8c7.7,-5.2 12.4,-13.5 16.9,-21.6c6.5,-11.6 12.9,-23.2 19.4,-34.8c6.2,-11.2 12.6,-23 13,-35.8c0.2,-5.8 -0.9,-11.9 1,-17.5c1.9,-5.5 8.6,-10 13.7,-7c-7.7,33.3 -8.4,68.2 -1.9,101.8c1,5.1 2.3,10.5 5.9,14.3c3.5,3.9 10,5.5 14,2.1c5.2,-4.4 5.2,-15.4 12,-15.3c5,0.1 6.8,6.4 9.8,10.2c6,7.4 18.7,5.2 25.1,-1.8c6.4,-7.1 8.1,-17.1 9.6,-26.5c2.9,-17.9 5.8,-35.9 8.7,-53.8c1.2,-7.7 5.1,-17.5 12.8,-16.6c-3.4,27.6 -8.1,55.1 -14.1,82.2c4.3,-9.3 17.1,-13.5 26.1,-8.5c9,4.9 12.2,18 6.6,26.6c-0.3,-11.6 16.6,-13.4 28,-10.9c34.8,7.6 69.7,15.2 104.5,22.8c37.4,8.2 80.1,20.4 95.6,55.4c5,11.2 0.7,24.9 -7.4,34.2c-8,9.4 -19.2,15.3 -30.2,21c-73.2,38.2 -146.5,76.5 -219.8,114.7c-13.7,7.1 -28,14.5 -43.4,14.7c-15.5,0.3 -32.3,-8.8 -35.3,-24c-2.8,-13.5 5.8,-26.5 14.1,-37.6c37.4,-50.4 77.2,-99.1 119.2,-145.8c7.5,-8.3 15.3,-17.3 17,-28.4c-19.2,-1.5 -38.5,-3.1 -57.7,-4.7c-14,-1.1 -31.4,-0.6 -38,11.9c-3.7,7 -14.5,2.7 -20.6,-2.4c-6.2,-5.1 -16.8,-9.6 -20.7,-2.6c-4.4,7.7 -15.9,3.6 -24.1,0.3c-24.4,-9.8 -54.8,-1.4 -70.7,19.5c-2.7,3.6 -5.3,7.8 -9.5,9.6c-4.2,1.8 -10.4,-0.5 -10.3,-5.1c6.038,-5.661 8.349,-5.433 6.849,-1.133c-5.294,-3.187 6.451,-14.367 13.651,-17.867c-3.9,-6.6 -14.6,-4.5 -20,1c-5.4,5.5 -8.4,13.2 -14.4,18c-6.1,4.8 -17.6,3.9 -18.9,-3.7c-1.5,-9.2 -13.9,-11.1 -23.3,-10.6c-23.1,1 -46.7,2.1 -68.3,10.4c-5.5,2.1 -11,4.6 -16.8,4.3c-43.6,-2.2 -87.5,-0.6 -130.9,4.7c-7,0.9 -15.1,2.6 -18.1,9c-6.4,0.1 -12.8,-1.6 -18.3,-4.8c8.1,-10.6 23.1,-12.4 36.4,-13.2c35.6,-2.3 71.2,-4.5 106.7,-6.8c-3.5,-36.7 3,-74.3 18.6,-107.8c9.9,-21.2 27.6,-43 51,-42.2c6.3,0.2 13,2.6 16.3,8c3.2,5.4 0.7,14.1 -5.5,15.2c-1.8,-9.9 -15,-14.1 -24.3,-10.2c-9.2,4 -15.1,13.1 -19.8,22.1c-15.4,29.3 -24.7,61.8 -27.2,94.8c-0.7,10.1 11.5,17.3 21.4,15.1c9.9,-2.2 17.1,-10.5 22.7,-19m504.703,30.053c-3.33,-1.892 -6.103,-3.853 -9.803,-5.353c-32.3,-12.8 -66.6,-20.2 -101.2,-21.8c-6.2,-0.3 -15,2.4 -13.6,8.4c2.4,10.9 -7.1,20.4 -15.4,27.7c-38.1,33.4 -68.135,74.473 -98.7,114.9c-0.884,1.17 -1.613,1.955 -2.393,2.839c-1.186,1.346 -2.24,2.554 -3.507,3.761c-8.707,8.293 -17.2,17.1 -22.1,28c-4.9,10.8 -5.6,24.3 0.9,34.3c1.8,2.8 4.3,5.4 7.5,6.6c3.9,1.5 8.2,0.8 12.3,0c43.5,-9.2 80.5,-36.5 119,-58.8c45.2,-26.1 93.9,-45.9 138.9,-72.4c12.1,-7.1 25.4,-17.5 24.2,-31.5c-0.7,-7.7 -6.2,-14.5 -12.7,-18.7c-2.868,-1.825 -4.512,-3.551 -6.131,-4.847c-2.107,-1.687 -4.051,-2.949 -7.36,-5.855c-2.102,-1.847 -6.017,-4.968 -8.837,-6.311m-403.472,-176.187c-2.8,-2.5 -7.5,-1.9 -10.4,0.5c-2.9,2.4 -4.5,6.1 -5.8,9.6c-7.3,20.3 -8.9,42 -10.4,63.5c-0.9,13 -1.8,26.1 -2.8,39.2c1.8,1.1 3.8,-1 4.7,-2.9c16.6,-31.7 31.3,-66.6 27.5,-102.3c-0.3,-2.7 -0.8,-5.7 -2.8,-7.6m-80.1,124.1c-6,11.3 -11.7,22.7 -17.1,34.4c2.9,1.9 6.7,1.9 10.2,1.7c15.6,-0.8 31.2,-2.3 46.7,-4.6c2,-0.3 4.2,-0.8 5.1,-2.5c0.6,-1.3 0.4,-2.8 0.1,-4.2c-0.7,-2.9 -1.3,-5.7 -1.9,-8.6c-5.2,4.6 -13,5.8 -19.6,3.8c-6.7,-2 -12.3,-6.9 -16,-12.8c-1.9,-3 -3.9,-6.7 -7.5,-7.2m168.4,-5.1c-1.2,-14 -1.107,-27.056 0.593,-41.056c-0.059,-1.245 1.486,0.969 0.986,2.769c0.8,5.1 -4.05,8.816 -6.679,13.287c-1.5,4.2 -3.8,8.1 -6.1,11.9c-6.3,10.4 -12.6,20.9 -18.9,31.3c-1.1,1.7 -1.4,4.9 0.6,4.9c10.6,0.4 21.1,0.7 31.7,1.1c0.9,0 1.9,0 2.7,-0.5c1.8,-1.1 1.3,-3.8 0.5,-5.8c-2,-5.4 -3.486,-11.042 -5.299,-16.881c-0.303,-1.727 3.631,2.179 2.77,5.11c-2.307,-1.448 -1.487,-1.938 -2.784,-5.212m-83.587,-12.617c-2.8,10.8 -4.6,21.8 -5.4,32.9c9.4,-10.1 11.1,-24.9 12.2,-38.7c-1.5,-0.9 -3.5,-0.2 -4.6,1.1c-1.2,1.3 -1.7,3.1 -2.2,4.7m190.3,25c1,1.8 3.8,1.5 5.6,0.5c4.7,-2.6 7.3,-8.7 5.8,-13.9c-3.7,2.4 -7.1,5.3 -10,8.8c-1.1,1.3 -2.1,3.1 -1.4,4.6m-159.2,18.6c3.2,-0.1 6.3,-0.2 9.5,-0.2c2.3,-0.1 5.4,-1.2 4.8,-3.4c-11,-0.1 -22.1,0.6 -33,2.3c6,1.6 12.4,1.5 18.7,1.3m216.4,-9.4c4.8,2.7 11,3.1 16.2,1c-0.8,-2.9 -4.6,-3.8 -7.5,-3.2c-3,0.6 -5.7,2.2 -8.7,2.2m-6.5,0.5c-4.6,-3 -10.6,-3.6 -15.7,-1.6c-0.8,0.3 -1.6,0.7 -2.4,1.1c5.9,1.3 12.1,1.4 18.1,0.5m-253.6,13.4c-2,1.5 -4,3 -6,4.5c0.9,2.6 4.1,4.1 6.6,3.1c1.5,-1.9 1.4,-4.9 -0.2,-6.7m67.1,-8.8c3.1,1 6.5,1 9.6,0.2c0.3,-1.2 -1.2,-2 -2.5,-2.1c-2.5,-0.4 -5,-0.1 -7.4,0.6m-191.576,24.05c-1,0.6 -1.535,-0.018 -1.924,-1.25c2.5,2.7 7.8,1.8 9.2,-1.6c0.299,1.906 -2.019,3.943 -4.119,3.843" style="fill-rule:nonzero;"/></svg>